# xmcd
#
# Track frame offsets:
#	150
#	7683
#	32879
#	54773
#	73678
#	92203
#	112303
#	127681
#	147226
#	164595
#	183537
#	201350
#
# Disc length: 2876 seconds
#
# Revision: 1
# Processed by: cddbd v1.5.2PL0 Copyright (c) Steve Scherf et al.
# Submitted via: audiograbber 1.83.01
#
DISCID=a60b3a0c
DTITLE=FERMIN IV PRESENTA HIP HOP POR LA VIDA - ESTAN POR ALCANZARTE
DYEAR=1900
DGENRE=Hip-Hop
TTITLE0=MANIFIESTO
TTITLE1=ESTAN POR ALCANZARTE
TTITLE2=FIRME COMO UN ROBLE
TTITLE3=VOY DE PASO
TTITLE4=RECUERDOS
TTITLE5=CADA MAÑANA
TTITLE6=HAY MOMENTOS
TTITLE7=ES LA VOZ
TTITLE8=VEN A JESUS
TTITLE9=YO TAMBIEN
TTITLE10=TODO
TTITLE11=VEN A JESUS (remix)
EXTD=
EXTT0=
EXTT1=
EXTT2=
EXTT3=
EXTT4=
EXTT5=
EXTT6=
EXTT7=
EXTT8=
EXTT9=
EXTT10=
EXTT11=
PLAYORDER=
